<?xml version="1.0" encoding="UTF-8" standalone="no" ?>
<!DOCTYPE svg PUBLIC "-//W3C//DTD SVG 1.1//EN" "http://www.w3.org/Graphics/SVG/1.1/DTD/svg11.dtd">
<svg xmlns="http://www.w3.org/2000/svg" xmlns:xlink="http://www.w3.org/1999/xlink" version="1.1" width="640" height="480" viewBox="0 0 640 480" xml:space="preserve">
<desc>Created with Fabric.js 3.6.6</desc>
<defs>
</defs>
<g transform="matrix(1.79 0 0 1.79 95.29 21.96)"  >
<path style="stroke: none; stroke-width: 1; stroke-dasharray: none; stroke-linecap: butt; stroke-dashoffset: 0; stroke-linejoin: miter; stroke-miterlimit: 4; fill: rgb(0,0,0); fill-rule: nonzero; opacity: 1;"  transform=" translate(-60, -30)" d="M 40 41.753 V 18.708 h 1.25 v 3.625 a 4.74 4.74 0 0 0 0.408 -0.511 c 1.044 -2.166 3.246 -3.533 5.65 -3.506 c 2.85 -0.085 5.166 0.97 6.527 3.506 a 11.27 11.27 0 0 1 0.272 10.331 c -1.268 2.842 -4.4 4.255 -7.753 3.736 a 6.27 6.27 0 0 1 -5.004 -3.302 v 9.165 z m 1.25 -14.893 l 0.28 2.706 c 0.494 3.08 2.315 4.9 5.174 5.242 a 5.88 5.88 0 0 0 6.459 -3.736 c 1.112 -2.65 1.03 -5.65 -0.22 -8.238 a 5.76 5.76 0 0 0 -6.068 -3.353 a 5.61 5.61 0 0 0 -5.012 4.144 a 28.62 28.62 0 0 0 -0.613 3.234 z m 39.498 3.132 a 6.74 6.74 0 0 1 -6.587 5.957 c -5.242 0.264 -7.702 -3.217 -8.093 -7.234 a 11.59 11.59 0 0 1 1.021 -6.383 a 7.12 7.12 0 0 1 7.412 -3.974 a 6.81 6.81 0 0 1 6.042 5.183 a 34.97 34.97 0 0 1 0.587 3.83 H 67.363 c -0.255 3.642 1.702 6.57 4.476 7.276 c 3.455 0.85 6.408 -0.647 7.48 -3.932 c 0.238 -0.843 0.672 -0.962 1.438 -0.723 z m -13.395 -3.787 h 12.314 c -0.077 -3.88 -2.493 -6.7 -5.77 -6.732 c -3.7 -0.06 -6.383 2.647 -6.544 6.732 z m 15.94 3.872 H 84.5 a 4.84 4.84 0 0 0 2.842 4.17 a 7.43 7.43 0 0 0 6.451 -0.17 a 2.9 2.9 0 0 0 1.702 -2.851 a 2.63 2.63 0 0 0 -1.77 -2.63 c -1.328 -0.494 -2.74 -0.766 -4.093 -1.2 a 30 30 0 0 1 -4.119 -1.506 c -2.18 -1.064 -2.315 -5.208 0.153 -6.52 a 8.69 8.69 0 0 1 8.306 -0.128 c 1.594 0.88 2.475 2.657 2.213 4.46 H 95.15 c 0 -0.05 -0.094 -0.094 -0.094 -0.145 c -0.128 -3.3 -2.902 -4.332 -5.88 -4.042 c -0.9 0.1 -1.753 0.372 -2.553 0.774 a 2.55 2.55 0 0 0 -1.48 2.553 a 2.55 2.55 0 0 0 1.702 2.4 c 1.3 0.477 2.68 0.783 4.025 1.157 l 3.25 0.85 a 3.84 3.84 0 0 1 2.638 3.464 c 0.26 1.745 -0.63 3.46 -2.204 4.255 c -2.842 1.608 -7.523 1.183 -9.608 -0.85 c -1.067 -1.073 -1.662 -2.53 -1.65 -4.042 z m 28.78 -6.374 h -1.132 c 0 -0.153 -0.06 -0.3 -0.077 -0.417 a 3.7 3.7 0 0 0 -3.013 -3.557 a 7.43 7.43 0 0 0 -4.774 0.23 a 2.9 2.9 0 0 0 -2.102 2.766 a 2.67 2.67 0 0 0 2.042 2.689 l 5.174 1.328 a 14.39 14.39 0 0 1 1.65 0.502 c 1.65 0.6 2.77 2.132 2.82 3.883 a 4.25 4.25 0 0 1 -2.6 4.04 a 9.47 9.47 0 0 1 -7.659 0.077 a 5.31 5.31 0 0 1 -3.2 -5.157 h 1.106 c 0.416 2.005 1.793 3.675 3.682 4.465 s 4.046 0.596 5.764 -0.516 a 3.04 3.04 0 0 0 1.634 -2.842 a 2.63 2.63 0 0 0 -1.796 -2.613 c -1.328 -0.494 -2.74 -0.757 -4.093 -1.2 a 30.15 30.15 0 0 1 -4.144 -1.489 c -2.128 -1.047 -2.298 -5.157 0.128 -6.468 a 8.57 8.57 0 0 1 8.442 -0.094 a 4.45 4.45 0 0 1 2.136 4.366 z m -74.13 11.83 a 1.95 1.95 0 0 1 -2.417 -0.919 l -4.4 -6.085 l -0.638 -0.85 l -5.106 6.944 a 1.87 1.87 0 0 1 -2.298 0.902 l 6.578 -8.825 l -6.12 -7.974 c 0.908 -0.328 1.92 0.028 2.425 0.85 l 4.56 6.16 l 4.587 -6.136 a 1.83 1.83 0 0 1 2.281 -0.851 L 35.02 21.9 l -3.217 4.187 a 0.85 0.85 0 0 0 0 1.268 l 6.127 8.178 z m 27.93 -16.892 v 1.2 a 6.17 6.17 0 0 0 -6.57 6.374 q 0 4.204 0 8.408 v 0.953 h -1.217 v -16.86 h 1.2 v 3.455 c 1.472 -2.52 3.744 -3.455 6.595 -3.523 z M 7.333 26.59 l 0.536 -2.647 c 1.472 -5.234 7.472 -7.412 11.6 -4.17 c 2.417 1.898 3.02 4.587 2.902 7.617 H 8.754 c -0.22 5.412 3.685 8.68 8.68 7.012 c 1.646 -0.6 2.885 -1.968 3.293 -3.668 c 0.264 -0.85 0.7 -0.996 1.498 -0.75 a 6.91 6.91 0 0 1 -3.302 5.047 a 8 8 0 0 1 -9.319 -1.191 c -1.216 -1.367 -1.95 -3.095 -2.093 -4.92 c 0 -0.3 -0.1 -0.58 -0.17 -0.85 q -0.01 -0.757 -0.01 -1.48 z m 1.438 -0.366 h 12.314 c -0.077 -3.923 -2.553 -6.706 -5.855 -6.732 c -3.676 -0.05 -6.306 2.672 -6.468 6.715 z" stroke-linecap="round" />
</g>
</svg>