<?xml version="1.0" encoding="UTF-8"?>
<svg width="21px" height="21px" viewBox="0 0 21 21" version="1.1" xmlns="http://www.w3.org/2000/svg" xmlns:xlink="http://www.w3.org/1999/xlink">
    <!-- Generator: Sketch 46 (44423) - http://www.bohemiancoding.com/sketch -->
    <title>world</title>
    <desc>Created with Sketch.</desc>
    <defs></defs>
    <g id="icons" stroke="none" stroke-width="1" fill="none" fill-rule="evenodd">
        <g id="Artboard" transform="translate(-271.000000, -202.000000)" fill-rule="nonzero" fill="#259be9">
            <path d="M290.853556,214.170785 L288.5456,212.941903 C288.361932,212.844108 288.20062,212.70917 288.071919,212.545666 L286.786776,210.913002 C286.61598,210.696015 286.301619,210.658573 286.084631,210.829374 C286.057068,210.85107 286.031865,210.875606 286.009437,210.902577 C285.491354,211.525622 284.948004,211.925584 284.371109,212.086313 C283.63308,212.291937 282.764078,212.226025 281.765321,211.904789 C281.648483,211.867208 281.521902,211.873916 281.409687,211.923635 L281.039276,212.087754 C280.44945,212.349088 279.759449,212.082794 279.498115,211.492968 C279.469995,211.429503 279.447589,211.363657 279.431161,211.296212 L279.054552,209.749994 C278.919297,209.194685 279.111369,208.610768 279.549869,208.24419 L281.96165,206.227978 C282.102548,206.110189 282.263879,206.019276 282.437615,205.959761 L284.429545,205.277402 C284.592151,205.2217 284.714747,205.08638 284.754175,204.919081 L285.04534,203.683625 C284.004724,203.264767 282.87287,203.024805 281.687861,203.00182 L281.477944,203.478609 C281.43491,203.576353 281.424303,203.685309 281.447678,203.789517 L281.578344,204.37205 C281.72859,205.041879 281.351593,205.717663 280.7027,205.941679 L280.30183,206.080071 C279.994141,206.186293 279.660249,206.189545 279.35055,206.089335 L277.532889,205.501189 C277.176391,205.385836 276.875975,205.141236 276.690755,204.815521 L276.47507,204.43623 C275.252727,205.199544 274.21648,206.233064 273.44994,207.453181 L273.552038,207.440907 C274.357187,207.344118 275.088352,207.918356 275.185141,208.723505 C275.217781,208.995024 275.173946,209.270263 275.058576,209.518209 L274.384814,210.966211 C274.33089,211.082057 274.262397,211.190538 274.180992,211.289017 C273.950025,211.568429 273.764247,212.028293 273.63895,212.668879 C273.501688,213.370641 273.494452,214.407317 273.623389,215.767126 C273.633256,215.871122 273.632228,215.975867 273.620325,216.079654 L273.451736,217.549676 C275.132676,220.223154 278.108836,222 281.5,222 C282.026146,222 282.542303,221.957227 283.045181,221.87497 L283.045181,220.554372 C283.045181,220.402168 282.975854,220.258253 282.856835,220.163383 L281.804728,219.324757 C281.76354,219.291927 281.717424,219.265811 281.668085,219.247375 L279.479441,218.429567 C279.07139,218.277095 278.749776,217.954769 278.598206,217.546382 L278.031504,216.019472 C277.968085,215.848596 277.936339,215.667593 277.937822,215.485334 L277.943321,214.809922 C277.948533,214.169699 278.359528,213.603357 278.966582,213.399892 L280.278298,212.960247 C280.606261,212.850325 280.962135,212.857125 281.285659,212.979495 L282.800235,213.552373 C282.870393,213.57891 282.945624,213.589322 283.020353,213.582837 L286.01008,213.32339 C286.138084,213.312282 286.266986,213.317666 286.393618,213.339411 L287.611788,213.548589 C287.947095,213.606166 288.252868,213.776018 288.478924,214.030269 L289.363613,215.0253 C289.632759,215.328014 289.768035,215.726712 289.738675,216.130708 L289.647249,217.388714 C290.232259,216.415863 290.647952,215.329629 290.853556,214.170785 Z M290.981001,213.105724 C290.993604,212.905437 291,212.703465 291,212.5 C291,208.869651 288.963666,205.714913 285.970908,204.115696 L285.72751,205.148471 C285.609226,205.650368 285.241437,206.056326 284.753619,206.223434 L282.761689,206.905792 C282.703777,206.925631 282.65,206.955935 282.603034,206.995198 L280.191253,209.01141 C280.045086,209.133603 279.981062,209.328241 280.026147,209.513344 C280.280946,210.556945 280.409694,211.08179 280.412392,211.087879 C280.450002,211.172763 280.549302,211.211086 280.634186,211.173477 L281.004597,211.009358 C281.341245,210.8602 281.720995,210.840076 282.071514,210.95282 C282.89826,211.218731 283.57492,211.270054 284.102719,211.123003 C284.46022,211.023399 284.842252,210.742184 285.240537,210.263209 C285.307818,210.182297 285.383427,210.108689 285.466114,210.043602 C286.117075,209.531202 287.060166,209.643529 287.572552,210.294491 L288.857691,211.927149 C288.900591,211.981651 288.954362,212.02663 289.015584,212.059228 L290.981001,213.105724 Z M277.350061,203.951954 L277.560035,204.3212 C277.621775,204.429772 277.721914,204.511306 277.840746,204.549757 L279.658408,205.137902 C279.761641,205.171306 279.872938,205.170222 279.975501,205.134814 L280.376371,204.996423 C280.544009,204.938549 280.641405,204.763964 280.602589,204.590917 L280.471923,204.008385 C280.4018,203.695759 280.433619,203.368893 280.562721,203.075661 L280.576524,203.04431 C279.429108,203.154997 278.34137,203.469795 277.350061,203.951954 Z M272.866528,208.530514 C272.31025,209.738399 272,211.082968 272,212.5 C272,213.701593 272.223083,214.851082 272.630092,215.90931 C272.63011,215.893376 272.629365,215.877438 272.627857,215.861549 C272.49064,214.414416 272.498487,213.290124 272.657547,212.47692 C272.812151,211.686497 273.057949,211.078064 273.410232,210.651892 C273.437377,210.619053 273.460226,210.582864 273.47819,210.544272 L274.15192,209.096339 C274.188718,209.017253 274.2027,208.929463 274.192289,208.842858 C274.161417,208.586047 273.928203,208.402887 273.671392,208.433759 L272.866528,208.530514 Z M288.535995,218.883267 L288.741305,216.058224 C288.751092,215.923559 288.706,215.79066 288.616285,215.689755 L287.731596,214.694724 C287.656244,214.609974 287.554319,214.553356 287.442551,214.534164 L286.22438,214.324986 C286.18217,214.317738 286.139203,214.315943 286.096534,214.319646 L283.106807,214.579093 C282.882621,214.598547 282.656929,214.567312 282.446453,214.487701 L280.931878,213.914824 C280.824037,213.874033 280.705412,213.871767 280.596091,213.908408 L279.284375,214.348053 C279.082023,214.415874 278.945025,214.604655 278.943288,214.818062 L278.937789,215.493475 C278.937295,215.554228 278.947877,215.614562 278.969016,215.671521 L279.535718,217.198431 C279.586242,217.33456 279.693447,217.442002 279.829463,217.492826 L282.018108,218.310633 C282.166125,218.365941 282.304473,218.44429 282.428035,218.54278 L283.480142,219.381406 C283.837201,219.666014 284.045181,220.097762 284.045181,220.554372 L284.045181,221.655208 C285.798136,221.168933 287.347316,220.192709 288.535995,218.883267 Z M281.5,223 C275.70101,223 271,218.29899 271,212.5 C271,206.70101 275.70101,202 281.5,202 C287.29899,202 292,206.70101 292,212.5 C292,218.29899 287.29899,223 281.5,223 Z" id="world"></path>
        </g>
    </g>
</svg>