<?xml version="1.0" encoding="UTF-8" standalone="no"?>
<svg
   width="646.25"
   height="740.19598"
   viewBox="0 0 646.25 740.19598"
   fill="none"
   version="1.1"
   id="svg60"
   sodipodi:docname="miguel.svg"
   inkscape:version="1.1.1 (3bf5ae0d25, 2021-09-20)"
   xmlns:inkscape="http://www.inkscape.org/namespaces/inkscape"
   xmlns:sodipodi="http://sodipodi.sourceforge.net/DTD/sodipodi-0.dtd"
   xmlns="http://www.w3.org/2000/svg"
   xmlns:svg="http://www.w3.org/2000/svg">
  <defs
     id="defs64" />
  <sodipodi:namedview
     id="namedview62"
     pagecolor="#ffffff"
     bordercolor="#666666"
     borderopacity="1.0"
     inkscape:pageshadow="2"
     inkscape:pageopacity="0.0"
     inkscape:pagecheckerboard="0"
     showgrid="false"
     inkscape:zoom="0.96897375"
     inkscape:cx="368.43103"
     inkscape:cy="253.36084"
     inkscape:window-width="1920"
     inkscape:window-height="1001"
     inkscape:window-x="379"
     inkscape:window-y="1341"
     inkscape:window-maximized="1"
     inkscape:current-layer="svg60" />
  <path
     d="m 562.48999,589.74099 c -1.75,1.25 -3.75,2.5 -5.5,3.75 -2,1.25 -3.75,2.5 -5.75,3.5 -1.75,1 -3.25,2 -5,3 -0.25,0.25 -0.5,0.25 -0.75,0.5 -5.75,3.5 -11.75,6.75 -17.75,9.75 -1.75,1 -3.75,2 -5.5,2.75 0,0 -0.25,0.25 -0.5,0.25 -2,1 -4,2 -6,3 -4,2 -8.25,3.75 -12.25,5.5 -2,1 -4.25,1.75 -6.25,2.5 -2,0.75 -4.25,1.75 -6.25,2.5 -2,0.75 -4.25,1.75 -6.25,2.5 0,0 0,0 -0.25,0 -2,0.75 -4.25,1.5 -6.25,2.25 -4.5,1.5 -9.25,3 -13.75,4.5 -1.5,0.5 -3.25,1 -4.75,1.5 -4.75,1.5 -9.5,2.75 -14.25,3.75 -1.75,0.5 -3.5,0.75 -5.5,1.25 -4.5,1 -9.25,2 -13.75,3 -1,0.25 -1.75,0.25 -2.75,0.5 -1.5,0.25 -3.25,0.5 -4.75,0.75 -2.25,0.25 -4.25,0.75 -6.5,1 -1,0.25 -2,0.25 -3,0.5 -1.25,0.25 -2.75,0.5 -4.25,0.5 -4,0.5 -8.25,1 -12.25,1.5 -1.25,0.25 -2.75,0.25 -4,0.5 h -0.25 c -1.75,0.25 -3.5,0.25 -5.25,0.5 -1.75,0.25 -3.5,0.25 -5.25,0.25 -1,0 -2.25,0.25 -3.25,0.25 -2,0 -3.75,0.25 -5.5,0.25 -2.5,0 -4.75,0.25 -7.25,0.25 -2.5,0 -4.75,0 -7.25,0 -1.75,0 -3.5,0 -5.25,0 -105.25,-1.5 -200.25,-46.25 -267.75,-117.25 0,0 0,-0.25 -0.25,-0.25 7.75,-15.25 36.5,-42.75 66.5,-65.5 38,-28.75 91.75,-46.5 91.75,-46.5 0,0 35.25,-5.75 166,21.5 99.75,21 142.25,106.25 156.75,145.5 z"
     fill="#fee4bf"
     id="path2" />
  <path
     d="m 433.48999,513.49099 c -5.25,25.75 -39.25,41 -96.5,18 -70.25,-28.5 -97.25,-108.75 -97.25,-108.75 -3.75,-57.5 -12.5,-106.75 -12.5,-106.75 81.25,-7 177.249,88 177.249,88 l 11.001,47 c 1,4 3,7.5 6,10 5.25,9 15.5,36 12,52.5 z"
     fill="#fee4bf"
     id="path4" />
  <path
     d="m 421.48999,461.24099 c -47.75,-2.5 -83,-9.5 -120.75,-77.25 32,28.25 69.75,39 109.5,44 l 5.251,23 c 1,4.25 2.999,7.75 5.999,10.25 z"
     fill="#efbd9c"
     id="path6" />
  <path
     d="m 520.23999,159.99099 c 4.5,21 6.75,38 -5.5,94 -12.25,56 11.25,112 -47.75,163.25 -39.75,34.5 -109.25,41 -164.75,3.25 -18.75,-12.75 -36,-30.5 -50,-53.75 -11,-18.25 -23.75,-35.5 -38,-51.25 -19.75,-21.5 -43.5,-64.75 -31.75,-141.25 19,-124.499699 142.25,-138.749699 215,-124.999699 72.75,13.75 110.5,55.249699 122.75,110.749699 z"
     fill="#fee4bf"
     id="path8" />
  <path
     d="m 280.98999,257.74099 c 0,0 -7.75,-37.5 -44.25,-33 -31.5,4 -42.5,79.5 29,100.5"
     fill="#fee4bf"
     id="path10" />
  <path
     d="m 263.48999,290.99099 c 0,0 -9,-5.75 -8,-15.75 1.5,-11.75 0,-19 -5.5,-21.25 -13.75,-5.75 -16.5,10.25 -16,12.25"
     stroke="#423232"
     stroke-width="7.5"
     stroke-miterlimit="10"
     stroke-linecap="round"
     stroke-linejoin="round"
     id="path12" />
  <path
     d="m 454.23999,315.24099 c 0,0 9.5,0.5 18.5,-10.25 5,-6 9.25,-13.5 6.5,-15.75 -2.75,-2.5 -48,4.5 -51,10.5 -3,6 14.5,15.5 26,15.5 z"
     fill="#efbd9c"
     id="path14" />
  <path
     d="m 461.73999,231.24099 c 0,0 0.5,23.75 15.75,50.25 6.75,11.75 -3.5,31 -25.75,34.25"
     stroke="#423232"
     stroke-width="7.5"
     stroke-miterlimit="10"
     stroke-linecap="round"
     stroke-linejoin="round"
     id="path16" />
  <path
     d="m 500.98999,369.99099 c 0,0.25 0,0.25 0,0 -0.25,0.25 -0.25,0.25 0,0 -6.25,16.25 -16.5,31.75 -34,47 -39.75,34.5 -109.25,41 -164.75,3.25 -6.25,-4.25 -12.25,-9 -18,-14.25 -4,-5 -7.5,-10.25 -10.5,-15.75 -18,-33.75 -10.25,-65.25 -10.25,-65.25 0,0 10.25,0.25 22.5,24.25 10.25,20 49.75,19.25 66,-18.25 18,-41.75 63,-23.5 73.25,-19.5 10.25,4 26.25,4 26.25,4 40.5,-0.5 28.25,26.75 32.5,41.75 6.25,20.5 17,12.75 17,12.75 z"
     fill="#423232"
     id="path18" />
  <path
     d="m 540.23999,104.05299 c -17.75,64.25 -69.25,53.5 -117.5,36 -64.25,-23.5 -120.75,-4.5 -121,53.5 -0.5,85 -21.75,59.25 -24,56 -5.5,-10.5 -17.25,-23.5 -39.5,-20.75 -29.25,3.75 -40.75,68.25 13.75,94.75 9.5,48.25 -16.5,43.75 -16.5,43.75 -8.75,-35.5 -82.25,-111 -82.5,-160.75 0,-67 33.75,-86 33.75,-86 1,-46.750199 49.75,-98.250199 131.75,-96.500199 82,1.5 132.25,-0.75 148.25,-20.0000197 16,-19.7499803 91.25,35.7500197 73.5,100.0002187 z"
     fill="#423232"
     id="path20" />
  <path
     d="m 587.74999,534.94599 c -35.5,-45.75 -90.5,-64.75 -120.75,-76 -2.5,-12.5 -7.25,-26.25 -14.75,-39.5 -11.5,7 -24.75,12.25 -38.5,15 l 2,8.25 c 1,4 6,22.5 -1.75,46.25 -6.5,20 -32.75,29 -77.25,8.75 -86.75,-39.25 -96.75,-83.5 -96.75,-83.5 -1.5,-24 -4,-46.5 -6.25,-64.75 -27,6 -58.25,18.25 -75.25,44 -21,31.5 -28.75,63.5 -26.75,89 -36.5,23.25 -93,58.5 -111.5,121.5 -23.9999898,82 -19.99998984,132.25 -19.99998984,132.25 H 646.24999 c -0.75,0.25 -10.25,-139 -58.5,-201.25 z"
     fill="#262e33"
     id="path22" />
  <path
     d="m 201.49999,452.94599 c 0,0 15.25,59.25 82,100.25"
     stroke="#423232"
     stroke-width="7.5"
     stroke-miterlimit="10"
     stroke-linecap="round"
     stroke-linejoin="round"
     id="path24" />
  <path
     d="m 466.74999,458.94599 c 0,0 17.75,76.75 -21,112"
     stroke="#423232"
     stroke-width="7.5"
     stroke-miterlimit="10"
     stroke-linecap="round"
     stroke-linejoin="round"
     id="path26" />
  <path
     d="m 346.24999,559.19599 c 0,0 -13,38 -9.5,64.25"
     stroke="#423232"
     stroke-width="7.5"
     stroke-miterlimit="10"
     stroke-linecap="round"
     stroke-linejoin="round"
     id="path28" />
  <path
     d="m 425.99999,556.94599 c 0,0 9.75,21.25 16.75,55"
     stroke="#423232"
     stroke-width="7.5"
     stroke-miterlimit="10"
     stroke-linecap="round"
     stroke-linejoin="round"
     id="path30" />
  <path
     d="m 131.24999,482.69599 c 0,0 20.5,83.5 142.5,108"
     stroke="#423232"
     stroke-width="7.5"
     stroke-miterlimit="10"
     stroke-linecap="round"
     stroke-linejoin="round"
     id="path32" />
  <path
     d="m 338.99999,629.19599 -11,-1 c -4,-0.5 -7,-4.25 -6.25,-8.25 l 3.75,-18.75 c 1,-5.25 6,-9 11.25,-8.25 5.25,0.5 9.5,5 9.5,10.5 l 0.25,19.25 c 0,3.75 -3.5,7 -7.5,6.5 z"
     fill="#ffffff"
     id="path34" />
  <path
     d="m 453.74999,617.69599 -10.5,3.75 c -4,1.5 -8.25,-1 -9,-5 l -4.5,-18.5 c -1.25,-5.25 1.5,-10.5 6.75,-12.5 5,-1.75 10.75,0.5 13,5.25 l 8.25,17.25 c 1.75,3.75 0,8.25 -4,9.75 z"
     fill="#ffffff"
     id="path36" />
  <path
     d="m 122.74999,736.44599 c 0,0 -2.25,-55.75 -9.75,-70.75"
     stroke="#544d4d"
     stroke-width="7.5"
     stroke-miterlimit="10"
     stroke-linecap="round"
     stroke-linejoin="round"
     id="path38" />
  <path
     d="m 563.99999,611.94599 c 0,0 14,78.5 8.5,124.5"
     stroke="#544d4d"
     stroke-width="7.5"
     stroke-miterlimit="10"
     stroke-linecap="round"
     stroke-linejoin="round"
     id="path40" />
  <path
     d="m 523.74999,687.44599 c 0,0 -37,5.5 -69.5,4"
     stroke="#544d4d"
     stroke-width="7.5"
     stroke-miterlimit="10"
     stroke-linecap="round"
     stroke-linejoin="round"
     id="path42" />
  <path
     d="m 417.76099,223.52799 c 5.431,0.75 9.628,-5 7.653,-10.5 -0.988,-3 -2.716,-5.75 -5.431,-7.5 -8.394,-5.25 -39.747,-5.75 -56.288,6.25 -14.565,11 29.378,8.25 54.066,11.75 z"
     fill="#423232"
     id="path44" />
  <path
     d="m 486.14399,226.27799 c -4.444,0 -7.16,-5.75 -4.938,-10.5 1.235,-2.5 2.963,-4.75 5.431,-6 7.654,-3.75 28.144,-1.5 37.279,11.25 8.146,11.25 -17.282,5 -37.772,5.25 z"
     fill="#423232"
     id="path46" />
  <path
     d="m 409.11899,255.02799 c -15.8,-8 -40.734,-2 -40.734,-2"
     stroke="#423232"
     stroke-width="7.5"
     stroke-miterlimit="10"
     stroke-linecap="round"
     stroke-linejoin="round"
     id="path48" />
  <path
     d="m 506.63599,260.02799 c 0,0 -6.419,-7 -30.119,-1.5"
     stroke="#423232"
     stroke-width="7.5"
     stroke-miterlimit="10"
     stroke-linecap="round"
     stroke-linejoin="round"
     id="path50" />
  <path
     d="m 455.88599,358.62499 c 0.25,4 -2.75,11 -8.25,16 -28.25,-17.25 -41,-8.25 -41,-8.25 -10,-15.25 -7.75,-36 16.5,-20.25 17,10.75 27.25,12.5 32.75,12.5 z"
     fill="#1b1b1b"
     id="path52" />
  <path
     d="m 447.63599,374.62499 c -6,5.25 -15,8.501 -27.25,3.501 -5.75,-2.25 -10.25,-6.75 -13.75,-11.75 0,0 12.75,-9.001 41,8.249 z"
     fill="#fe9dab"
     id="path54" />
  <path
     d="m 460.63599,357.62599 c 0,0 -10.5,5.75 -37.5,-11.5 -32.25,-20.75 -25.75,22.75 -3,32 23.75,9.75 36,-11.5 35.75,-19.5"
     stroke="#1b1b1b"
     stroke-width="7.5"
     stroke-miterlimit="10"
     stroke-linecap="round"
     stroke-linejoin="round"
     id="path56" />
  <path
     d="m 406.63599,366.37599 c 0,0 12.75,-9.001 41,8.249"
     stroke="#1b1b1b"
     stroke-width="7.5"
     stroke-miterlimit="10"
     stroke-linecap="round"
     stroke-linejoin="round"
     id="path58" />
</svg>
