<?xml version="1.0" standalone="no"?>
<!DOCTYPE svg PUBLIC "-//W3C//DTD SVG 20010904//EN"
 "http://www.w3.org/TR/2001/REC-SVG-20010904/DTD/svg10.dtd">
<svg version="1.0" xmlns="http://www.w3.org/2000/svg"
 width="700.000000pt" height="700.000000pt" viewBox="0 0 700.000000 700.000000"
 preserveAspectRatio="xMidYMid meet">
<metadata>
Created by potrace 1.14, written by Peter Selinger 2001-2017
</metadata>
<g transform="translate(0.000000,700.000000) scale(0.100000,-0.100000)"
fill="#000000" stroke="none">
<path d="M1755 6986 c-264 -84 -526 -384 -611 -701 -14 -53 -19 -102 -18 -205
1 -116 5 -148 28 -223 70 -233 179 -380 341 -459 88 -44 141 -53 295 -53 179
0 267 18 570 117 266 86 257 84 360 103 414 78 770 -38 921 -300 62 -107 80
-191 90 -415 20 -451 65 -620 166 -620 29 0 85 50 117 103 77 132 247 212 398
187 69 -11 107 -30 153 -76 101 -100 145 -317 100 -489 -45 -174 -167 -329
-335 -426 -58 -34 -59 -35 -69 -95 -16 -88 -13 -212 5 -274 21 -72 75 -127
134 -136 l43 -7 -6 -66 c-3 -36 -13 -151 -22 -256 -15 -179 -18 -194 -51 -264
-125 -267 -448 -544 -889 -761 -286 -141 -442 -186 -628 -178 -124 5 -204 36
-266 103 -87 94 -133 339 -100 534 6 36 14 69 18 73 3 3 38 0 76 -8 322 -64
711 4 1029 181 103 56 258 169 313 227 53 55 139 203 173 296 55 150 72 256
68 424 -2 80 -6 149 -9 152 -11 11 -57 -12 -100 -51 -38 -34 -84 -99 -159
-223 -28 -47 -95 -95 -154 -111 -23 -6 -77 -9 -122 -7 -67 4 -94 10 -159 41
-114 54 -183 129 -264 285 -99 192 -190 264 -366 292 -107 17 -223 -2 -411
-65 -55 -19 -136 -39 -180 -44 -70 -8 -81 -7 -94 9 -8 10 -31 21 -50 25 -132
28 -239 133 -240 236 0 23 19 77 54 150 64 136 100 244 122 374 18 105 14 140
-15 148 -35 9 -48 -15 -64 -121 -20 -127 -71 -281 -131 -400 -39 -76 -46 -98
-46 -148 0 -103 65 -208 161 -263 l48 -27 -44 -12 c-24 -6 -61 -26 -81 -44
-59 -52 -75 -102 -84 -252 -6 -102 -12 -143 -30 -184 -31 -71 -72 -105 -122
-100 -44 4 -44 1 4 -97 86 -173 243 -349 437 -491 1 -2 -15 -49 -37 -106 -22
-57 -48 -129 -57 -160 -11 -39 -22 -59 -36 -63 -10 -4 -22 -17 -25 -29 -4 -19
-34 -34 -167 -86 -551 -213 -928 -482 -1159 -825 -150 -223 -286 -560 -383
-955 -20 -80 -38 -151 -40 -157 -4 -10 674 -13 3365 -13 3279 0 3370 1 3370
19 0 25 -93 388 -124 486 -38 117 -156 346 -233 454 -78 109 -260 301 -383
406 -112 95 -245 193 -406 299 -105 69 -131 90 -127 105 3 11 -3 24 -15 33
-17 11 -22 29 -27 103 -20 282 -113 554 -276 804 -139 216 -339 356 -649 456
-63 20 -117 38 -119 40 -8 8 83 156 271 437 295 443 397 621 474 818 54 141
68 232 61 400 -16 351 -126 633 -310 795 -48 42 -49 44 -58 121 -48 380 -375
731 -820 877 -224 74 -362 87 -924 86 -449 -1 -652 8 -835 37 -216 34 -341 81
-427 161 -26 25 -58 49 -71 54 -32 12 -89 10 -137 -5z m735 -4007 c-38 -32
-114 -59 -166 -59 -36 0 -90 17 -81 26 19 19 179 64 227 63 l55 0 -35 -30z
m-173 -2354 c36 -41 37 -68 9 -183 -35 -140 -43 -158 -75 -172 -23 -9 -40 -7
-102 16 -86 30 -112 52 -112 91 0 35 93 232 120 256 48 42 120 38 160 -8z
m1125 -82 c23 -23 32 -48 53 -152 35 -174 21 -197 -127 -203 -115 -4 -118 0
-118 169 0 152 10 185 63 209 44 20 95 10 129 -23z"/>
<path d="M2512 4796 c-57 -14 -86 -36 -108 -78 -21 -40 -17 -83 9 -113 l23
-27 159 11 c427 30 481 38 492 67 13 33 -87 97 -203 129 -81 22 -302 29 -372
11z"/>
<path d="M1560 4739 c-114 -19 -256 -118 -248 -173 5 -32 55 -36 258 -24 208
12 225 18 223 82 -3 92 -95 137 -233 115z"/>
<path d="M2645 4307 c-101 -27 -140 -64 -100 -97 13 -11 26 -10 78 6 63 19
214 25 351 14 48 -4 60 -2 70 13 15 23 -2 48 -40 60 -51 15 -304 18 -359 4z"/>
<path d="M4270 4282 c-59 -31 -80 -87 -80 -210 0 -110 -6 -129 -52 -178 -63
-67 -7 -116 59 -52 61 59 73 93 73 218 0 104 1 112 25 135 29 30 75 33 99 6
10 -11 23 -41 30 -68 10 -41 16 -48 38 -51 53 -6 57 73 8 153 -39 63 -129 84
-200 47z"/>
<path d="M1546 4245 c-52 -18 -80 -47 -72 -73 10 -31 31 -33 83 -10 41 18 58
20 142 14 165 -12 163 -12 175 7 18 28 -5 51 -65 64 -76 16 -216 15 -263 -2z"/>
</g>
</svg>
