<svg version="1.2" xmlns="http://www.w3.org/2000/svg" viewBox="0 0 512 512" width="512" height="512">
	<title>android-chrome-512x512_adobe_express-svg</title>
	<style>
		.s0 { fill: #209cee } 
		.s1 { fill: #fcfeff } 
		.s2 { fill: #feffff } 
		.s3 { fill: #ffffff } 
		.s4 { fill: #249eee } 
		.s5 { fill: #229dee } 
	</style>
	<path id="Layer" fill-rule="evenodd" class="s0" d="m1 476c0-145.7 0-291.4 0.3-437.2 0.7-0.6 1.4-1 1.6-1.5 5.3-17.3 16.7-28.6 33.8-34.4 0.6-0.2 0.9-1.2 1.3-1.9 145.7 0 291.4 0 437.2 0.3 0.6 0.7 1 1.4 1.5 1.6 17.3 5.3 28.6 16.7 34.4 33.8 0.2 0.6 1.2 0.9 1.9 1.3 0 145.7 0 291.4-0.3 437.2-0.7 0.6-1.4 1-1.6 1.5-5.3 17.3-16.7 28.6-33.8 34.4-0.6 0.2-0.9 1.2-1.3 1.9-145.7 0-291.4 0-437.2-0.3-0.6-0.7-1-1.4-1.5-1.6-17.3-5.3-28.6-16.7-34.4-33.8-0.2-0.6-1.2-0.9-1.9-1.3zm205.4-238c-5.2-12.9-10.4-25.9-15.6-38.9-1.7-4.3-2.5-10.3-5.7-12.3-3.5-2.3-9.3-0.6-14.1-1-3.9-0.4-5.8 0.9-7.3 4.7-17.6 44.4-35.4 88.8-53.1 133.1-0.6 1.6-1.2 3.3-2 5.4 4.6 0 8.5-0.2 12.3 0.1 5.3 0.3 8.3-2.1 10.1-7 3.5-9.5 7.4-18.9 10.9-28.4 1.1-3 2.6-4 5.8-3.9q28 0.2 56 0c3.2-0.1 4.6 1.1 5.7 4 3.5 9.7 7.1 19.4 11.2 28.8 1.1 2.5 3.6 5.6 5.8 6 5.1 0.9 10.4 0.3 16.3 0.3-12.2-30.6-24.1-60.4-36.3-90.9zm103 37.2c3.7-0.4 7.3-0.6 10.9-1.2 24.2-4.5 38.6-21.3 38.2-44.6-0.4-23.9-13.7-39.6-39.1-42.2-18.3-2-36.9-0.9-55.4-1.2-0.2 0-0.5 0.4-0.7 0.5q0 71.2 0 142.1c6.4 0 12.5 0 18.9 0 0-17.8 0-35.2 0-53.4 9 0 17.6 0 27.2 0zm77.3 39.3c0 4.7 0 9.5 0 14.1 6.9 0 13 0 19 0 0-47.7 0-95.1 0-142.4-6.5 0-12.6 0-19 0 0 42.7 0 85 0 128.3z"/>
	<path id="Layer" fill-rule="evenodd" class="s1" d="m206.5 238.4c12.1 30.1 24 59.9 36.2 90.5-5.9 0-11.2 0.6-16.3-0.3-2.2-0.4-4.7-3.5-5.8-6-4.1-9.4-7.7-19.1-11.2-28.8-1.1-2.9-2.5-4.1-5.7-4q-28 0.2-56 0c-3.2-0.1-4.7 0.9-5.8 3.9-3.5 9.5-7.4 18.9-10.9 28.4-1.8 4.9-4.8 7.3-10.1 7-3.8-0.3-7.7-0.1-12.3-0.1 0.8-2.1 1.4-3.8 2-5.4 17.7-44.3 35.5-88.7 53.1-133.1 1.5-3.8 3.4-5.1 7.3-4.7 4.8 0.4 10.6-1.3 14.1 1 3.2 2 4 8 5.7 12.3 5.2 13 10.4 26 15.7 39.3zm-55.5 32c-0.6 1.6-1.2 3.3-1.9 5.1 17.9 0 35.2 0 53 0-9-23.6-17.8-46.6-26.5-69.3-8.1 21-16.3 42.2-24.6 64.2z"/>
	<path id="Layer" fill-rule="evenodd" class="s2" d="m308.9 275.2c-9.1 0-17.7 0-26.7 0 0 18.2 0 35.6 0 53.4-6.4 0-12.5 0-18.9 0q0-70.9 0-142.1c0.2-0.1 0.5-0.5 0.7-0.5 18.5 0.3 37.1-0.8 55.4 1.2 25.4 2.6 38.7 18.3 39.1 42.2 0.4 23.3-14 40.1-38.2 44.6-3.6 0.6-7.2 0.8-11.4 1.2zm12.8-71.7c-12.9-4.3-26.2-1.8-39.4-2.6 0 20.1 0 39.3 0 60 12.5-1 24.9-0.9 36.8-3.2 11.8-2.2 19.1-12.7 19.9-24.5 0.9-14.6-4.3-24-17.3-29.7z"/>
	<path id="Layer" class="s3" d="m386.7 314c0-42.8 0-85.1 0-127.8 6.4 0 12.5 0 19 0 0 47.3 0 94.7 0 142.4-6 0-12.1 0-19 0 0-4.6 0-9.4 0-14.6z"/>
	<path id="Layer" class="s4" d="m151.1 270c8.2-21.6 16.4-42.8 24.5-63.8 8.7 22.7 17.5 45.7 26.5 69.3-17.8 0-35.1 0-53 0 0.7-1.8 1.3-3.5 2-5.5z"/>
	<path id="Layer" class="s5" d="m322.1 203.7c12.6 5.5 17.8 14.9 16.9 29.5-0.8 11.8-8.1 22.3-19.9 24.5-11.9 2.3-24.3 2.2-36.8 3.2 0-20.7 0-39.9 0-60 13.2 0.8 26.5-1.7 39.8 2.8z"/>
</svg>